<?xml version="1.0" encoding="utf-8"?>
<svg version="1.1"
     id="svg1" xmlns:inkscape="http://www.inkscape.org/namespaces/inkscape" xmlns:sodipodi="http://sodipodi.sourceforge.net/DTD/sodipodi-0.dtd" xmlns:svg="http://www.w3.org/2000/svg" inkscape:version="1.3.2 (091e20ef0f, 2023-11-25, custom)" sodipodi:docname="skill.svg"
     xmlns="http://www.w3.org/2000/svg" xmlns:xlink="http://www.w3.org/1999/xlink" x="0px" y="0px" viewBox="201 151.6 1018.1 992.6"
     enable-background="new 201 151.6 1018.1 992.6" xml:space="preserve">
<sodipodi:namedview  inkscape:cy="695.00935" inkscape:cx="921.34463" inkscape:zoom="0.43740419" borderopacity="0.25" bordercolor="#000000" pagecolor="#ffffff" id="namedview1" inkscape:window-x="0" inkscape:window-height="868" inkscape:pagecheckerboard="0" inkscape:window-width="1440" inkscape:pageopacity="0.0" inkscape:current-layer="svg1" inkscape:showpageshadow="2" inkscape:window-maximized="1" inkscape:window-y="0" inkscape:deskcolor="#d1d1d1">
    </sodipodi:namedview>
<polyline points="435,1111.6 435,261.3 585,151.6 609.1,151.6 470.5,256.3 621,256.9 772,151.6 799.9,151.8 649,262.3 648,1111.6 
    "/>
<polyline points="664.9,404.3 914,1144.3 1112,1088.3 870,366.3 989.3,205.3 960.3,210.1 837,363.9 704.6,394.4 848.1,231.2 
    816.2,236.4 "/>
<polyline points="888.5,370.3 997.6,215.3 1219.1,921.4 1126,1078.3 "/>
<polyline points="664.9,270.9 664.9,378.9 798,238.3 798,168.3 "/>
<polyline points="664.9,442.3 665,1108.3 834,956.3 "/>
<polyline points="201,1111.6 201,261.3 351,151.6 375.1,151.6 236.5,256.3 387,256.9 538,151.6 565.9,151.8 415,262.3 414,1111.6 
    "/>
</svg>
